<svg xmlns="http://www.w3.org/2000/svg" xmlns:xlink="http://www.w3.org/1999/xlink" version="1.1" width="841.8898pt" height="595.2756pt" viewBox="0 0 841.8898 595.2756">
	<g enable-background="new">
		<g id="asv_white" data-name="asv_white">
			<path transform="matrix(1,0,0,-1,0,595.2756)" d="M 271.3793 248.5706 L 255.9209 284.7532 L 154.6191 284.7532 L 138.5036 246.9251 L 132.2651 233.1119 L 237.49 233.1119 L 285.6472 233.1119 C 279.2149 235.8734 274.5264 241.3743 271.3793 248.5706 " fill="#fff" />
			<path transform="matrix(1,0,0,-1,0,595.2756)" d="M 726.7346 456.6098 C 730.2943 452.433 732.4296 447.0225 732.4296 440.9853 C 732.4296 437.0383 731.1149 432.7625 729.7988 429.8023 L 654.4806 249.5571 C 651.3659 242.1587 646.7391 236.5072 640.6285 233.1113 L 678.0801 233.1113 L 730.5231 362.9177 L 746.3106 402.0012 C 746.3106 402.0012 764.8798 447.9642 726.7346 456.6098 " fill="#fff" />
			<path transform="matrix(1,0,0,-1,0,595.2756)" d="M 329.3271 278.1079 C 329.3271 291.2644 339.8522 301.4603 353.0081 301.4603 C 359.5864 301.4603 364.1919 299.1574 367.4798 296.8546 C 384.9111 284.0278 403.9883 276.1328 426.3534 276.1328 C 447.0741 276.1328 459.5726 284.3555 459.5726 297.8416 L 459.5726 298.5007 C 459.5726 311.3274 451.6795 317.9061 413.1975 327.7726 C 366.8227 339.6144 336.8928 352.4411 336.8928 398.1611 L 336.8928 398.8185 C 336.8928 425.4857 350.5793 446.3731 372.7046 458.0042 L 328.3481 458.0042 L 274.955 458.0042 C 239.2277 457.9843 246.0875 426.4665 251.9351 412.3689 L 253.4292 408.6454 L 317.0951 265.6738 C 318.7412 262.0568 319.7256 258.7674 319.7256 255.4775 C 319.7256 245.4185 313.8673 236.8284 305.2939 233.1119 L 402.8128 233.1119 C 380.1997 236.5529 358.1393 245.1915 338.8657 259.0302 C 333.2752 262.9769 329.3271 270.2132 329.3271 278.1079 " fill="#fff" />
			<path transform="matrix(1,0,0,-1,0,595.2756)" d="M 173.3664 329.4833 L 237.1725 329.4833 L 205.2694 405.4626 Z " fill="#fff" />
			<path transform="matrix(1,0,0,-1,0,595.2756)" d="M 567.3231 447.5633 L 624.8823 298.5659 L 683.0966 449.2074 C 684.3421 452.3258 686.3964 455.3921 689.1242 458.0031 L 688.8702 458.0031 L 560.5824 458.0031 C 563.5298 455.1165 565.7834 451.5463 567.3231 447.5633 " fill="#fff" />
			<path transform="matrix(1,0,0,-1,0,595.2756)" d="M 593.9634 249.5571 L 519.3023 428.1585 C 517.6587 432.1052 516.344 436.0518 516.344 440.3279 C 516.344 447.3351 519.0953 453.5311 523.5854 458.0036 L 470.8984 458.0036 C 477.7509 455.1605 484.2865 451.7649 490.4887 447.8253 C 496.0791 444.5374 501.6711 437.631 501.6711 427.7645 C 501.6711 414.6063 491.1477 404.4101 477.9901 404.4101 C 473.0587 404.4101 469.1086 405.7243 465.1625 408.0291 C 448.3913 417.8974 432.6021 423.4878 416.8142 423.4878 C 397.4091 423.4878 387.2134 414.6063 387.2134 403.4237 L 387.2134 402.7643 C 387.2134 387.6347 397.0817 382.7013 436.8779 372.5056 C 483.5806 360.3356 509.8955 343.5608 509.8955 303.4329 L 509.8955 302.7776 C 509.8955 263.8854 484.6589 239.5247 446.5531 233.1113 L 520.651 233.1113 L 607.8175 233.1113 C 601.7071 236.5067 597.0781 242.1587 593.9634 249.5571 " fill="#fff" />
			<path transform="matrix(1,0,0,-1,0,595.2756)" d="M 376.4665 186.6716 C 372.4356 186.6716 369.1894 185.487 366.73 183.1158 C 364.269 180.7464 363.039 177.6172 363.039 173.7281 C 363.039 169.8591 364.269 166.735 366.73 164.3545 C 369.1894 161.9748 372.4356 160.7845 376.4665 160.7845 C 380.4778 160.7845 383.7078 161.9748 386.1581 164.3545 C 388.6087 166.735 389.8346 169.8591 389.8346 173.7281 C 389.8346 177.6172 388.6087 180.7464 386.1581 183.1158 C 383.7078 185.487 380.4778 186.6716 376.4665 186.6716 " fill="#a7a9ac" />
			<path transform="matrix(1,0,0,-1,0,595.2756)" d="M 275.1866 187.1867 L 269.8396 187.1867 L 269.8396 177.5254 L 275.4295 177.5254 C 277.2122 177.5254 278.6238 177.9449 279.6681 178.7873 C 280.7101 179.6264 281.2323 180.8274 281.2323 182.3865 C 281.2323 185.5862 279.2157 187.1867 275.1866 187.1867 " fill="#a7a9ac" />
			<path transform="matrix(1,0,0,-1,0,595.2756)" d="M 596.2192 173.3335 C 593.7165 170.82 590.3104 169.5648 585.9964 169.5648 L 577.5797 169.5648 L 577.5797 152.5195 L 567.0079 152.5195 L 567.0079 194.9664 L 585.9351 194.9664 C 590.2294 194.9664 593.6411 193.7205 596.1745 191.2283 C 598.7058 188.7381 599.9715 185.7909 599.9715 182.3862 C 599.9715 178.8625 598.7217 175.845 596.2192 173.3335 Z M 503.9575 170.8719 C 503.9575 164.6731 502.1226 159.9735 498.4588 156.7743 C 494.7914 153.5729 489.5558 151.9744 482.7523 151.9744 C 476.0257 151.9744 470.8066 153.5927 467.0887 156.8356 C 463.3727 160.0767 461.5146 164.7357 461.5146 170.8129 L 461.5146 194.9664 L 472.117 194.9664 L 472.117 170.5677 C 472.117 167.6098 473.0837 165.24 475.0194 163.4593 C 476.9532 161.6751 479.4897 160.7839 482.6299 160.7839 C 485.8906 160.7839 488.4973 161.697 490.4524 163.5191 C 492.4077 165.3426 493.3854 167.9352 493.3854 171.2971 L 493.3854 194.9664 L 503.9575 194.9664 Z M 393.9364 158.4448 C 389.3992 154.1313 383.5766 151.9744 376.467 151.9744 C 369.2761 151.9744 363.4228 154.1205 358.9058 158.4142 C 354.3902 162.7087 352.1307 167.815 352.1307 173.7275 C 352.1307 179.5414 354.3738 184.6242 358.8608 188.9796 C 363.3474 193.3353 369.2163 195.512 376.467 195.512 C 383.6971 195.512 389.5503 193.3296 394.0282 188.9654 C 398.5038 184.6006 400.7418 179.5218 400.7418 173.7275 C 400.7418 167.8527 398.4732 162.7591 393.9364 158.4448 Z M 284.8513 152.5195 C 284.1582 153.919 282.9515 156.5816 281.2306 160.5118 C 279.5094 164.4409 278.0371 166.9632 276.8125 168.0758 C 275.5862 169.1904 274.2758 169.7488 272.8769 169.7488 L 269.8396 169.7488 L 269.8396 152.5195 L 259.2658 152.5195 L 259.2658 194.9664 L 278.2242 194.9664 C 282.3361 194.9664 285.6779 193.7761 288.2506 191.3978 C 290.8233 189.0196 292.1088 186.1404 292.1088 182.7587 C 292.1088 178.0846 289.6781 174.6224 284.817 172.3757 C 286.9486 171.4068 288.9723 168.7944 290.8936 164.5449 C 292.8127 160.2941 294.6651 156.2845 296.4529 152.5195 Z M 196.5501 157.6871 C 194.8686 156.0039 192.312 154.6319 188.879 153.5678 C 185.4454 152.5051 182.048 151.9744 178.6847 151.9744 C 171.2923 151.9744 165.2216 154.0142 160.4718 158.0958 C 155.7204 162.1772 153.3478 167.3683 153.3478 173.6683 C 153.3478 180.1089 155.7204 185.3606 160.4718 189.4226 C 165.2216 193.4807 171.3733 195.512 178.9282 195.512 C 185.1661 195.512 190.7473 194.3487 195.6682 192.0189 L 195.6682 182.7516 C 190.2614 185.3663 184.9754 186.6713 179.8101 186.6713 C 174.8265 186.6713 170.9881 185.4147 168.2943 182.903 C 165.6014 180.3909 164.2544 177.192 164.2544 173.3029 C 164.2544 169.5756 165.6014 166.5564 168.2943 164.2479 C 170.9881 161.9399 174.5331 160.7839 178.9282 160.7839 C 181.2574 160.7839 183.5963 161.2916 185.9477 162.3033 L 185.9477 167.2566 L 179.8101 167.2566 L 179.8101 175.0331 L 196.5501 175.0331 Z M 157.3356 212.5641 L 124.6399 212.5641 L 91.0624 137.2731 L 613.404 137.2731 C 613.404 137.2731 639.6936 136.3762 653.4921 168.8933 L 669.8089 212.5641 Z " fill="#a7a9ac" />
			<path transform="matrix(1,0,0,-1,0,595.2756)" d="M 587.3332 186.1092 C 586.1594 186.8272 584.1522 187.1878 581.3167 187.1878 L 577.5803 187.1878 L 577.5803 177.3442 L 582.501 177.3442 C 586.8978 177.3442 589.0958 178.9843 589.0958 182.2652 C 589.0958 184.1085 588.5073 185.3906 587.3332 186.1092 " fill="#a7a9ac" />
			<path transform="matrix(1,0,0,-1,0,595.2756)" d="M 179.8101 186.6716 C 184.9754 186.6716 190.2614 185.3646 195.6696 182.7522 L 195.6696 192.0195 C 190.7473 194.3493 185.1661 195.512 178.9277 195.512 C 171.3733 195.512 165.221 193.481 160.4718 189.4212 C 155.7224 185.3589 153.3478 180.1071 153.3478 173.6668 C 153.3478 167.3668 155.7224 162.1777 160.4718 158.0964 C 165.221 154.0128 171.2923 151.9744 178.6847 151.9744 C 182.048 151.9744 185.4454 152.5037 188.8784 153.5678 C 192.312 154.6319 194.8686 156.0039 196.5501 157.6854 L 196.5501 175.0337 L 179.8101 175.0337 L 179.8101 167.2571 L 185.9477 167.2571 L 185.9477 162.3039 C 183.598 161.2902 181.2574 160.7845 178.9277 160.7845 C 174.5331 160.7845 170.9881 161.9405 168.2943 164.2484 C 165.6014 166.5567 164.2544 169.5762 164.2544 173.3029 C 164.2544 177.1906 165.6014 180.3915 168.2943 182.903 Z " fill="#ffffff" />
			<path transform="matrix(1,0,0,-1,0,595.2756)" d="M 279.6676 178.7873 C 278.6233 177.9449 277.2116 177.5254 275.4289 177.5254 L 269.8393 177.5254 L 269.8393 187.1867 L 275.186 187.1867 C 279.2174 187.1867 281.2317 185.5862 281.2317 182.3865 C 281.2317 180.8274 280.7116 179.6264 279.6676 178.7873 Z M 284.8164 172.374 C 289.6795 174.6232 292.11 178.0835 292.11 182.7598 C 292.11 186.141 290.8227 189.0198 288.2517 191.3984 C 285.677 193.7767 282.3355 194.9647 278.2253 194.9647 L 259.2652 194.9647 L 259.2652 152.5204 L 269.8393 152.5204 L 269.8393 169.7471 L 272.8783 169.7471 C 274.2752 169.7471 275.5857 169.1909 276.8122 168.0766 C 278.0379 166.9635 279.5108 164.4392 281.2317 160.5124 C 282.9532 156.5821 284.1596 153.9173 284.8507 152.5204 L 296.4546 152.5204 C 294.6668 156.2851 292.8121 160.2944 290.8928 164.5458 C 288.9717 168.7946 286.9481 171.4054 284.8164 172.374 " fill="#ffffff" />
			<path transform="matrix(1,0,0,-1,0,595.2756)" d="M 386.159 164.3556 C 383.7084 161.9751 380.4769 160.7851 376.4676 160.7851 C 372.4362 160.7851 369.1899 161.9751 366.7289 164.3556 C 364.2676 166.7339 363.0382 169.8593 363.0382 173.7269 C 363.0382 177.6161 364.2676 180.7472 366.7289 183.1164 C 369.1899 185.4862 372.4362 186.6722 376.4676 186.6722 C 380.4769 186.6722 383.7084 185.4862 386.159 183.1164 C 388.6092 180.7472 389.8352 177.6161 389.8352 173.7269 C 389.8352 169.8593 388.6092 166.7339 386.159 164.3556 Z M 376.4676 195.5129 C 369.2154 195.5129 363.3477 193.3362 358.8608 188.9807 C 354.3744 184.625 352.1313 179.5422 352.1313 173.7269 C 352.1313 167.8144 354.3885 162.7081 358.9064 158.4139 C 363.4234 154.1194 369.2767 151.9733 376.4676 151.9733 C 383.5752 151.9733 389.3998 154.1302 393.9367 158.4459 C 398.4738 162.7586 400.7424 167.8521 400.7424 173.7269 C 400.7424 179.5209 398.5044 184.6001 394.0282 188.9643 C 389.5509 193.3305 383.6976 195.5129 376.4676 195.5129 " fill="#ffffff" />
			<path transform="matrix(1,0,0,-1,0,595.2756)" d="M 493.3851 171.2971 C 493.3851 167.9357 492.4071 165.3412 490.4521 163.5191 C 488.4968 161.697 485.89 160.7839 482.6293 160.7839 C 479.4897 160.7839 476.9527 161.6754 475.0189 163.4579 C 473.0854 165.2406 472.1165 167.6098 472.1165 170.5677 L 472.1165 194.9664 L 461.514 194.9664 L 461.514 170.8112 C 461.514 164.7343 463.3722 160.0767 467.0901 156.8356 C 470.806 153.5927 476.0254 151.9744 482.7518 151.9744 C 489.5552 151.9744 494.7911 153.5734 498.4583 156.7743 C 502.1243 159.9741 503.9569 164.6731 503.9569 170.8719 L 503.9569 194.9664 L 493.3851 194.9664 Z " fill="#ffffff" />
			<path transform="matrix(1,0,0,-1,0,595.2756)" d="M 582.5015 177.3442 L 577.5812 177.3442 L 577.5812 187.1872 L 581.3169 187.1872 C 584.1524 187.1872 586.1582 186.8289 587.334 186.1087 C 588.5079 185.3901 589.0949 184.1085 589.0949 182.2646 C 589.0949 178.9843 586.8967 177.3442 582.5015 177.3442 Z M 585.9351 194.9652 L 567.0094 194.9652 L 567.0094 152.5204 L 577.5812 152.5204 L 577.5812 169.566 L 585.9964 169.566 C 590.3099 169.566 593.7165 170.8209 596.2187 173.3326 C 598.7217 175.8441 599.9709 178.8636 599.9709 182.3871 C 599.9709 185.7903 598.7052 188.7372 596.1739 191.2294 C 593.6426 193.7211 590.2294 194.9652 585.9351 194.9652 " fill="#ffffff" />
		</g>
	</g>
</svg>
